<?xml version="1.0" encoding="UTF-8" standalone="no"?>
<!-- Created with Inkscape (http://www.inkscape.org/) -->

<svg
   xmlns:dc="http://purl.org/dc/elements/1.1/"
   xmlns:cc="http://creativecommons.org/ns#"
   xmlns:rdf="http://www.w3.org/1999/02/22-rdf-syntax-ns#"
   xmlns:svg="http://www.w3.org/2000/svg"
   xmlns="http://www.w3.org/2000/svg"
   xmlns:sodipodi="http://sodipodi.sourceforge.net/DTD/sodipodi-0.dtd"
   xmlns:inkscape="http://www.inkscape.org/namespaces/inkscape"
   width="420mm"
   height="297mm"
   viewBox="0 0 420 297"
   version="1.1"
   id="svg906"
   inkscape:version="0.92.4 (5da689c313, 2019-01-14)"
   sodipodi:docname="heisei.svg">
  <defs
     id="defs900" />
  <sodipodi:namedview
     id="base"
     pagecolor="#ffffff"
     bordercolor="#666666"
     borderopacity="1.0"
     inkscape:pageopacity="0.0"
     inkscape:pageshadow="2"
     inkscape:zoom="0.35"
     inkscape:cx="1164.9632"
     inkscape:cy="819.5192"
     inkscape:document-units="mm"
     inkscape:current-layer="layer1"
     showgrid="true"
     inkscape:object-paths="true"
     inkscape:snap-smooth-nodes="true"
     inkscape:snap-intersection-paths="true"
     inkscape:snap-nodes="true"
     inkscape:snap-midpoints="false"
     inkscape:object-nodes="true"
     inkscape:window-width="1920"
     inkscape:window-height="1027"
     inkscape:window-x="-8"
     inkscape:window-y="-8"
     inkscape:window-maximized="1">
    <inkscape:grid
       type="xygrid"
       id="grid1564"
       units="mm"
       spacingx="3"
       spacingy="3" />
  </sodipodi:namedview>
  <metadata
     id="metadata903">
    <rdf:RDF>
      <cc:Work
         rdf:about="">
        <dc:format>image/svg+xml</dc:format>
        <dc:type
           rdf:resource="http://purl.org/dc/dcmitype/StillImage" />
        <dc:title></dc:title>
      </cc:Work>
    </rdf:RDF>
  </metadata>
  <g
     inkscape:label="レイヤー 1"
     inkscape:groupmode="layer"
     id="layer1">
    <g
       transform="matrix(0.46818885,0,0,0.46818885,-8.9542576,31.40612)"
       id="layer1-2"
       inkscape:label="レイヤー 1"
       style="stroke-width:2.13589025">
      <g
         inkscape:export-ydpi="300.03366"
         inkscape:export-xdpi="300.03366"
         inkscape:export-filename="D:\Sotaro\Pictures\自作\windor\3.png"
         id="g5078-0-5"
         style="display:inline;stroke-width:2.13589025"
         transform="translate(-575.16167,816.20324)">
        <path
           d="m 698.77207,-774.37116 v 43.92084 h -9.72344 c 0,0 0,-35.05729 0,-36.38215 0,-0.69829 -0.16603,-1.49451 -0.65982,-1.98824 -0.49084,-0.49079 -1.25052,-0.65565 -1.97644,-0.65565 -1.33249,0 -7.15332,0 -7.15332,0 v 39.02604 h -9.72344 v -20.30677 -28.44271 h 9.72344 14.68437 c 1.32292,0 2.46945,0.46302 3.43959,1.38906 0.92604,0.97014 1.38906,2.11667 1.38906,3.43958 z"
           style="font-style:normal;font-variant:normal;font-weight:normal;font-stretch:normal;font-size:medium;line-height:1.25;font-family:Cornerstone;-inkscape-font-specification:Cornerstone;letter-spacing:0px;word-spacing:0px;fill:#333333;fill-opacity:1;stroke:none;stroke-width:0.56512094"
           id="path6367-1-2-7"
           inkscape:connector-curvature="0"
           sodipodi:nodetypes="sccsasccccccscs" />
        <path
           d="m 689.04863,-686.59564 v -18.25624 -25.59844 h 9.72344 v 36.38118 c 0,0.69331 0.17048,1.48136 0.65982,1.97251 0.49319,0.49501 1.28677,0.67235 1.98553,0.67235 h 7.14423 v -39.02604 h 9.72344 v 39.02604 c 0,0 5.82083,0 7.14374,0 0.70073,0 1.50176,-0.16136 1.99678,-0.65732 0.49164,-0.49258 0.64906,-1.28844 0.64906,-1.98438 0,-1.32705 0,-36.38434 0,-36.38434 h 9.72344 v 43.85468 c 0,1.36702 -0.46302,2.51355 -1.38907,3.43959 -0.97013,0.97014 -2.11666,1.45521 -3.43958,1.45521 h -14.68437 c -1.32292,0 -2.46945,-0.48507 -3.43959,-1.45521 -0.92604,-0.92604 -1.38906,-2.07257 -1.38906,-3.43959 0,1.36702 -0.48507,2.51355 -1.45521,3.43959 -0.92604,0.97014 -2.07257,1.45521 -3.43958,1.45521 h -14.61823 c -1.36701,0 -2.51354,-0.48507 -3.43958,-1.45521 -0.97014,-0.92604 -1.45521,-2.07257 -1.45521,-3.43959 z"
           style="font-style:normal;font-variant:normal;font-weight:normal;font-stretch:normal;font-size:medium;line-height:1.25;font-family:Cornerstone;-inkscape-font-specification:Cornerstone;letter-spacing:0px;word-spacing:0px;fill:#333333;fill-opacity:1;stroke:none;stroke-width:0.56512094"
           id="path6369-8-4-0"
           inkscape:connector-curvature="0"
           sodipodi:nodetypes="scccsasccccsasccscsssccsscs" />
        <path
           d="m 767.12593,-715.646 v -2.24896 c 0,-0.69462 -0.17137,-1.48385 -0.66146,-1.9761 -0.48979,-0.49195 -1.27777,-0.66973 -1.97197,-0.66973 0,0 -3.1874,0 -4.50618,0 -0.69726,0 -1.49409,0.15741 -1.98851,0.64906 -0.49534,0.49255 -0.66146,1.28995 -0.66146,1.9885 0,1.33119 0,24.01921 0,24.01921 0,0.68983 0.16738,1.47396 0.65319,1.9637 0.49534,0.49935 1.29342,0.68213 1.99678,0.68213 h 4.49791 c 0.69593,0 1.48845,-0.16905 1.98024,-0.66146 0.49364,-0.49425 0.66146,-1.28996 0.66146,-1.9885 v -2.24483 h 9.72344 v 9.72343 c 0,1.36702 -0.46302,2.51355 -1.38907,3.43959 -0.97014,0.97014 -2.11667,1.45521 -3.43958,1.45521 H 752.5077 c -1.36701,0 -2.51354,-0.48507 -3.43958,-1.45521 -0.97014,-0.92604 -1.45521,-2.07257 -1.45521,-3.43959 v -14.68437 -10.05417 -14.2875 c 0,-1.32291 0.48507,-2.46944 1.45521,-3.43958 0.92604,-0.92604 2.07257,-1.38906 3.43958,-1.38906 h 19.51302 c 1.32291,0 2.46944,0.46302 3.43958,1.38906 0.92605,0.97014 1.38907,2.11667 1.38907,3.43958 v 9.78959 z"
           style="font-style:normal;font-variant:normal;font-weight:normal;font-stretch:normal;font-size:medium;line-height:1.25;font-family:Cornerstone;-inkscape-font-specification:Cornerstone;letter-spacing:0px;word-spacing:0px;fill:#333333;fill-opacity:1;stroke:none;stroke-width:0.56512094"
           id="path6373-7-7-3"
           inkscape:connector-curvature="0"
           sodipodi:nodetypes="csassassassasccscsscsccsssscscc" />
        <path
           d="m 757.32337,-764.64367 v 39.02604 c 0,1.36702 -0.46302,2.51355 -1.38906,3.43959 -0.97014,0.97014 -2.11667,1.45521 -3.43957,1.45521 h -19.51303 c -1.36701,0 -2.51354,-0.48507 -3.43958,-1.45521 -0.97014,-0.92604 -1.45521,-2.07257 -1.45521,-3.43959 v -14.68437 -10.05417 -14.2875 c 0,-1.32291 0.48507,-2.46944 1.45521,-3.43958 0.92604,-0.92604 2.07257,-1.38906 3.43958,-1.38906 h 19.51302 c 1.32291,0 2.46945,0.46302 3.43958,1.38906 0.92604,0.97014 1.38906,2.11667 1.38906,3.43958 z m -18.84067,33.53674 c 0.49088,0.48903 1.27803,0.66066 1.97093,0.66066 h 4.50461 c 0.69942,0 1.49533,-0.17377 1.9885,-0.66972 0.48918,-0.49194 0.65318,-1.28235 0.65319,-1.97611 10e-6,-1.19984 0,-22.68802 0,-23.99853 0,-0.69899 -0.16032,-1.497 -0.65319,-1.99265 -0.49379,-0.49656 -1.29235,-0.66559 -1.99264,-0.66559 -1.32292,0 -4.49378,0 -4.49378,0 -0.69637,0 -1.49104,0.16171 -1.98438,0.65319 -0.49703,0.49517 -0.66559,1.29518 -0.66559,1.99678 v 11.96825 12.04279 c 0,0.69731 0.17836,1.48879 0.67235,1.98093 z"
           style="font-style:normal;font-variant:normal;font-weight:normal;font-stretch:normal;font-size:medium;line-height:1.25;font-family:Cornerstone;-inkscape-font-specification:Cornerstone;letter-spacing:0px;word-spacing:0px;fill:#333333;fill-opacity:1;stroke:none;stroke-width:0.56512094"
           id="path6371-8-3-8"
           inkscape:connector-curvature="0"
           sodipodi:nodetypes="ssssscsccsssscsassassassascsa" />
      </g>
      <path
         inkscape:export-ydpi="300.03366"
         inkscape:export-xdpi="300.03366"
         sodipodi:nodetypes="sccsasccccccscs"
         inkscape:connector-curvature="0"
         id="path6367-70-9"
         style="font-style:normal;font-variant:normal;font-weight:normal;font-stretch:normal;font-size:medium;line-height:1.25;font-family:Cornerstone;-inkscape-font-specification:Cornerstone;letter-spacing:0px;word-spacing:0px;display:inline;fill:#7fd04c;fill-opacity:1;stroke:none;stroke-width:0.56512094"
         d="m 122.37018,40.806808 v 43.920845 h -9.72344 c 0,0 0,-35.05729 0,-36.38215 0,-0.69829 -0.16603,-1.494515 -0.65982,-1.988245 -0.49084,-0.49079 -1.25052,-0.65565 -1.97644,-0.65565 -1.33249,0 -7.15332,0 -7.15332,0 V 84.727653 H 93.133719 V 64.420883 35.978168 h 9.723441 14.68437 c 1.32292,0 2.46945,0.46302 3.43959,1.38906 0.92604,0.97014 1.38906,2.11667 1.38906,3.43958 z" />
      <path
         inkscape:export-ydpi="300.03366"
         inkscape:export-xdpi="300.03366"
         sodipodi:nodetypes="scccsasccccsasccscsssccsscs"
         inkscape:connector-curvature="0"
         id="path6369-4-0"
         style="font-style:normal;font-variant:normal;font-weight:normal;font-stretch:normal;font-size:medium;line-height:1.25;font-family:Cornerstone;-inkscape-font-specification:Cornerstone;letter-spacing:0px;word-spacing:0px;display:inline;fill:#00b5cf;fill-opacity:1;stroke:none;stroke-width:0.56512094"
         d="M 112.64674,128.58233 V 110.32609 84.727653 h 9.72344 v 36.381177 c 0,0.6933 0.17048,1.48136 0.65982,1.97251 0.49319,0.49501 1.28677,0.67235 1.98553,0.67235 h 7.14423 V 84.727653 h 9.72344 v 39.026037 c 0,0 5.82083,0 7.14374,0 0.70073,0 1.50176,-0.16136 1.99678,-0.65732 0.49164,-0.49259 0.64906,-1.28844 0.64906,-1.98439 0,-1.32704 0,-36.384327 0,-36.384327 h 9.72344 v 43.854677 c 0,1.36702 -0.46302,2.51355 -1.38907,3.43958 -0.97013,0.97014 -2.11666,1.45522 -3.43958,1.45522 H 141.8832 c -1.32292,0 -2.46945,-0.48508 -3.43959,-1.45522 -0.92604,-0.92603 -1.38906,-2.07256 -1.38906,-3.43958 0,1.36702 -0.48507,2.51355 -1.45521,3.43958 -0.92604,0.97014 -2.07257,1.45522 -3.43958,1.45522 h -14.61823 c -1.36701,0 -2.51354,-0.48508 -3.43958,-1.45522 -0.97014,-0.92603 -1.45521,-2.07256 -1.45521,-3.43958 z" />
      <path
         inkscape:export-ydpi="300.03366"
         inkscape:export-xdpi="300.03366"
         sodipodi:nodetypes="csassassassasccscsscsccsssscscc"
         inkscape:connector-curvature="0"
         id="path6373-05-6"
         style="font-style:normal;font-variant:normal;font-weight:normal;font-stretch:normal;font-size:medium;line-height:1.25;font-family:Cornerstone;-inkscape-font-specification:Cornerstone;letter-spacing:0px;word-spacing:0px;display:inline;fill:#d61f00;fill-opacity:1;stroke:none;stroke-width:0.56512094"
         d="m 190.72404,99.531963 v -2.24896 c 0,-0.69461 -0.17137,-1.48385 -0.66146,-1.97609 -0.48979,-0.49196 -1.27777,-0.66973 -1.97197,-0.66973 0,0 -3.1874,0 -4.50618,0 -0.69726,0 -1.49409,0.1574 -1.98851,0.64906 -0.49534,0.49254 -0.66146,1.28995 -0.66146,1.9885 0,1.33119 0,24.019207 0,24.019207 0,0.68983 0.16738,1.47396 0.65319,1.96369 0.49534,0.49936 1.29342,0.68213 1.99678,0.68213 h 4.49791 c 0.69593,0 1.48845,-0.16905 1.98024,-0.66145 0.49364,-0.49426 0.66146,-1.28996 0.66146,-1.9885 v -2.24483 h 9.72344 v 9.72343 c 0,1.36702 -0.46302,2.51354 -1.38907,3.43959 -0.97014,0.97014 -2.11667,1.4552 -3.43958,1.4552 h -19.51302 c -1.36701,0 -2.51354,-0.48506 -3.43958,-1.4552 -0.97014,-0.92605 -1.45521,-2.07257 -1.45521,-3.43959 V 114.08405 104.02988 89.742383 c 0,-1.32292 0.48507,-2.46944 1.45521,-3.43958 0.92604,-0.92605 2.07257,-1.38906 3.43958,-1.38906 h 19.51302 c 1.32291,0 2.46944,0.46301 3.43958,1.38906 0.92605,0.97014 1.38907,2.11666 1.38907,3.43958 v 9.78958 z" />
      <path
         inkscape:export-ydpi="300.03366"
         inkscape:export-xdpi="300.03366"
         sodipodi:nodetypes="ssssscsccsssscsassassassascsa"
         inkscape:connector-curvature="0"
         id="path6371-0-2"
         style="font-style:normal;font-variant:normal;font-weight:normal;font-stretch:normal;font-size:medium;line-height:1.25;font-family:Cornerstone;-inkscape-font-specification:Cornerstone;letter-spacing:0px;word-spacing:0px;display:inline;fill:#ff8004;fill-opacity:1;stroke:none;stroke-width:0.56512094"
         d="m 180.92148,50.534303 v 39.02603 c 0,1.36703 -0.46302,2.51355 -1.38906,3.4396 -0.97014,0.97014 -2.11667,1.4552 -3.43957,1.4552 h -19.51303 c -1.36701,0 -2.51354,-0.48506 -3.43958,-1.4552 -0.97014,-0.92605 -1.45521,-2.07257 -1.45521,-3.4396 v -14.68436 -10.05417 -14.2875 c 0,-1.32291 0.48507,-2.46944 1.45521,-3.43958 0.92604,-0.926045 2.07257,-1.389065 3.43958,-1.389065 h 19.51302 c 1.32291,0 2.46945,0.46302 3.43958,1.389065 0.92604,0.97014 1.38906,2.11667 1.38906,3.43958 z m -18.84067,33.53674 c 0.49088,0.48902 1.27803,0.66065 1.97093,0.66065 h 4.50461 c 0.69942,0 1.49533,-0.17377 1.9885,-0.66971 0.48918,-0.49194 0.65318,-1.28235 0.65319,-1.97612 1e-5,-1.19983 0,-22.68801 0,-23.99852 0,-0.69899 -0.16032,-1.497 -0.65319,-1.99265 -0.49379,-0.49656 -1.29235,-0.66559 -1.99264,-0.66559 -1.32292,0 -4.49378,0 -4.49378,0 -0.69637,0 -1.49104,0.16171 -1.98438,0.65319 -0.49703,0.49517 -0.66559,1.29518 -0.66559,1.99678 v 11.96825 12.04279 c 0,0.6973 0.17836,1.48878 0.67235,1.98093 z" />
    </g>
    <path
       style="color:#000000;font-style:normal;font-variant:normal;font-weight:normal;font-stretch:normal;font-size:medium;line-height:normal;font-family:sans-serif;font-variant-ligatures:normal;font-variant-position:normal;font-variant-caps:normal;font-variant-numeric:normal;font-variant-alternates:normal;font-feature-settings:normal;text-indent:0;text-align:start;text-decoration:none;text-decoration-line:none;text-decoration-style:solid;text-decoration-color:#000000;letter-spacing:normal;word-spacing:normal;text-transform:none;writing-mode:lr-tb;direction:ltr;text-orientation:mixed;dominant-baseline:auto;baseline-shift:baseline;text-anchor:start;white-space:normal;shape-padding:0;clip-rule:nonzero;display:inline;overflow:visible;visibility:visible;opacity:1;isolation:auto;mix-blend-mode:normal;color-interpolation:sRGB;color-interpolation-filters:linearRGB;solid-color:#000000;solid-opacity:1;vector-effect:none;fill:#7fd04c;fill-opacity:1;fill-rule:nonzero;stroke:none;stroke-width:30;stroke-linecap:butt;stroke-linejoin:miter;stroke-miterlimit:4;stroke-dasharray:none;stroke-dashoffset:0;stroke-opacity:1;color-rendering:auto;image-rendering:auto;shape-rendering:auto;text-rendering:auto;enable-background:accumulate"
       d="m 0,188.99999 45,24.2537 h 375 l -45,-24.2537 z"
       id="path967"
       inkscape:connector-curvature="0"
       sodipodi:nodetypes="ccccc" />
    <text
       xml:space="preserve"
       style="font-style:normal;font-variant:normal;font-weight:500;font-stretch:normal;font-size:63.5px;line-height:1;font-family:'Noto Sans CJK JP';-inkscape-font-specification:'Noto Sans CJK JP Medium';font-variant-ligatures:normal;font-variant-caps:normal;font-variant-numeric:normal;font-feature-settings:normal;text-align:center;letter-spacing:0px;word-spacing:0px;writing-mode:lr-tb;text-anchor:middle;fill:#000000;fill-opacity:1;stroke:none;stroke-width:0.26458332"
       x="209.54138"
       y="97.887123"
       id="text1522"><tspan
         sodipodi:role="line"
         id="tspan1520"
         x="209.54138"
         y="97.887123"
         style="font-style:normal;font-variant:normal;font-weight:500;font-stretch:normal;font-size:70.55555725px;font-family:'Noto Sans CJK JP';-inkscape-font-specification:'Noto Sans CJK JP Medium';font-variant-ligatures:normal;font-variant-caps:normal;font-variant-numeric:normal;font-feature-settings:normal;text-align:center;writing-mode:lr-tb;text-anchor:middle;stroke-width:0.26458332"
         dx="0 11">平成</tspan></text>
    <text
       id="text1526"
       y="136.74077"
       x="210.2794"
       style="font-style:normal;font-variant:normal;font-weight:500;font-stretch:normal;font-size:63.5px;line-height:1;font-family:'Noto Sans CJK JP';-inkscape-font-specification:'Noto Sans CJK JP Medium';font-variant-ligatures:normal;font-variant-caps:normal;font-variant-numeric:normal;font-feature-settings:normal;text-align:center;letter-spacing:0px;word-spacing:0px;writing-mode:lr-tb;text-anchor:middle;fill:#000000;fill-opacity:1;stroke:none;stroke-width:0.26458332"
       xml:space="preserve"><tspan
         style="font-style:normal;font-variant:normal;font-weight:500;font-stretch:normal;font-size:25.39999962px;font-family:'Noto Sans CJK JP';-inkscape-font-specification:'Noto Sans CJK JP Medium';font-variant-ligatures:normal;font-variant-caps:normal;font-variant-numeric:normal;font-feature-settings:normal;text-align:center;writing-mode:lr-tb;text-anchor:middle;stroke-width:0.26458332"
         y="136.74077"
         x="210.2794"
         id="tspan1524"
         sodipodi:role="line">へいせい</tspan></text>
    <text
       xml:space="preserve"
       style="font-style:normal;font-variant:normal;font-weight:normal;font-stretch:normal;font-size:63.5px;line-height:1;font-family:'Noto Sans CJK JP';-inkscape-font-specification:'Noto Sans CJK JP';font-variant-ligatures:normal;font-variant-caps:normal;font-variant-numeric:normal;font-feature-settings:normal;text-align:center;letter-spacing:0px;word-spacing:0px;writing-mode:lr-tb;text-anchor:middle;fill:#000000;fill-opacity:1;stroke:none;stroke-width:0.26458332"
       x="209.9996"
       y="167.74403"
       id="text1530"><tspan
         sodipodi:role="line"
         id="tspan1528"
         x="209.9996"
         y="167.74403"
         style="font-style:normal;font-variant:normal;font-weight:normal;font-stretch:normal;font-size:25.39999962px;font-family:'Noto Sans CJK JP';-inkscape-font-specification:'Noto Sans CJK JP';font-variant-ligatures:normal;font-variant-caps:normal;font-variant-numeric:normal;font-feature-settings:normal;text-align:center;writing-mode:lr-tb;text-anchor:middle;stroke-width:0.26458332">HEISEI</tspan></text>
    <circle
       style="opacity:1;fill:none;fill-opacity:1;fill-rule:evenodd;stroke:#ff8004;stroke-width:5;stroke-linecap:butt;stroke-linejoin:bevel;stroke-miterlimit:4;stroke-dasharray:none;stroke-dashoffset:0;stroke-opacity:1;paint-order:stroke markers fill"
       id="path1532"
       cx="359.9382"
       cy="71.358231"
       r="18.174328" />
    <text
       id="text1544"
       y="70.680901"
       x="360.24036"
       style="font-style:normal;font-variant:normal;font-weight:normal;font-stretch:normal;font-size:16.93333244px;line-height:0.80000001;font-family:'Noto Sans CJK JP';-inkscape-font-specification:'Noto Sans CJK JP';font-variant-ligatures:normal;font-variant-caps:normal;font-variant-numeric:normal;font-feature-settings:normal;text-align:center;letter-spacing:0px;word-spacing:0px;writing-mode:lr-tb;text-anchor:middle;fill:#000000;fill-opacity:1;stroke:none;stroke-width:0.26458332"
       xml:space="preserve"><tspan
         style="font-style:normal;font-variant:normal;font-weight:normal;font-stretch:normal;font-size:16.93333244px;line-height:0.80000001;font-family:'Noto Sans CJK JP';-inkscape-font-specification:'Noto Sans CJK JP';font-variant-ligatures:normal;font-variant-caps:normal;font-variant-numeric:normal;font-feature-settings:normal;text-align:center;writing-mode:lr-tb;text-anchor:middle;stroke-width:0.26458332"
         y="70.680901"
         x="360.24036"
         id="tspan1542"
         sodipodi:role="line">H</tspan><tspan
         style="font-style:normal;font-variant:normal;font-weight:normal;font-stretch:normal;font-size:16.93333244px;line-height:0.80000001;font-family:'Noto Sans CJK JP';-inkscape-font-specification:'Noto Sans CJK JP';font-variant-ligatures:normal;font-variant-caps:normal;font-variant-numeric:normal;font-feature-settings:normal;text-align:center;writing-mode:lr-tb;text-anchor:middle;stroke-width:0.26458332"
         y="84.22757"
         x="360.24036"
         sodipodi:role="line"
         id="tspan1546">31</tspan></text>
    <text
       xml:space="preserve"
       style="font-style:normal;font-variant:normal;font-weight:500;font-stretch:normal;font-size:63.5px;line-height:1;font-family:'Noto Sans CJK JP';-inkscape-font-specification:'Noto Sans CJK JP Medium';font-variant-ligatures:normal;font-variant-caps:normal;font-variant-numeric:normal;font-feature-settings:normal;text-align:center;letter-spacing:0px;word-spacing:0px;writing-mode:lr-tb;text-anchor:middle;fill:#000000;fill-opacity:1;stroke:none;stroke-width:0.26458332"
       x="60.290394"
       y="253.08379"
       id="text1550"><tspan
         sodipodi:role="line"
         id="tspan1548"
         x="60.290394"
         y="253.08379"
         style="font-style:normal;font-variant:normal;font-weight:500;font-stretch:normal;font-size:25.39999962px;font-family:'Noto Sans CJK JP';-inkscape-font-specification:'Noto Sans CJK JP Medium';font-variant-ligatures:normal;font-variant-caps:normal;font-variant-numeric:normal;font-feature-settings:normal;text-align:center;writing-mode:lr-tb;text-anchor:middle;stroke-width:0.26458332">昭和</tspan></text>
    <text
       id="text1554"
       y="253.21078"
       x="360.71292"
       style="font-style:normal;font-variant:normal;font-weight:500;font-stretch:normal;font-size:63.5px;line-height:1;font-family:'Noto Sans CJK JP';-inkscape-font-specification:'Noto Sans CJK JP Medium';font-variant-ligatures:normal;font-variant-caps:normal;font-variant-numeric:normal;font-feature-settings:normal;text-align:center;letter-spacing:0px;word-spacing:0px;writing-mode:lr-tb;text-anchor:middle;fill:#000000;fill-opacity:1;stroke:none;stroke-width:0.26458332"
       xml:space="preserve"><tspan
         style="font-style:normal;font-variant:normal;font-weight:500;font-stretch:normal;font-size:25.39999962px;font-family:'Noto Sans CJK JP';-inkscape-font-specification:'Noto Sans CJK JP Medium';font-variant-ligatures:normal;font-variant-caps:normal;font-variant-numeric:normal;font-feature-settings:normal;text-align:center;writing-mode:lr-tb;text-anchor:middle;stroke-width:0.26458332"
         y="253.21078"
         x="360.71292"
         id="tspan1552"
         sodipodi:role="line">令和</tspan></text>
    <text
       id="text1558"
       y="273.01022"
       x="59.692833"
       style="font-style:normal;font-variant:normal;font-weight:normal;font-stretch:normal;font-size:16.93333244px;line-height:1;font-family:'Noto Sans CJK JP';-inkscape-font-specification:'Noto Sans CJK JP';font-variant-ligatures:normal;font-variant-caps:normal;font-variant-numeric:normal;font-feature-settings:normal;text-align:center;letter-spacing:0px;word-spacing:0px;writing-mode:lr-tb;text-anchor:middle;fill:#000000;fill-opacity:1;stroke:none;stroke-width:0.26458332"
       xml:space="preserve"><tspan
         style="font-style:normal;font-variant:normal;font-weight:normal;font-stretch:normal;font-size:16.93333244px;font-family:'Noto Sans CJK JP';-inkscape-font-specification:'Noto Sans CJK JP';font-variant-ligatures:normal;font-variant-caps:normal;font-variant-numeric:normal;font-feature-settings:normal;text-align:center;writing-mode:lr-tb;text-anchor:middle;stroke-width:0.26458332"
         y="273.01022"
         x="59.692833"
         id="tspan1556"
         sodipodi:role="line">SHOWA</tspan></text>
    <text
       xml:space="preserve"
       style="font-style:normal;font-variant:normal;font-weight:normal;font-stretch:normal;font-size:16.93333244px;line-height:1;font-family:'Noto Sans CJK JP';-inkscape-font-specification:'Noto Sans CJK JP';font-variant-ligatures:normal;font-variant-caps:normal;font-variant-numeric:normal;font-feature-settings:normal;text-align:center;letter-spacing:0px;word-spacing:0px;writing-mode:lr-tb;text-anchor:middle;fill:#000000;fill-opacity:1;stroke:none;stroke-width:0.26458332"
       x="359.12051"
       y="273.01022"
       id="text1562"><tspan
         sodipodi:role="line"
         id="tspan1560"
         x="359.12051"
         y="273.01022"
         style="font-style:normal;font-variant:normal;font-weight:normal;font-stretch:normal;font-size:16.93333244px;font-family:'Noto Sans CJK JP';-inkscape-font-specification:'Noto Sans CJK JP';font-variant-ligatures:normal;font-variant-caps:normal;font-variant-numeric:normal;font-feature-settings:normal;text-align:center;writing-mode:lr-tb;text-anchor:middle;stroke-width:0.26458332">REIWA</tspan></text>
  </g>
</svg>
